<svg xmlns="http://www.w3.org/2000/svg" xmlns:xlink="http://www.w3.org/1999/xlink" width="500" zoomAndPan="magnify" viewBox="0 0 375 105.749996" height="141" preserveAspectRatio="xMidYMid meet" version="1.0"><defs><g/><clipPath id="5cf6ccdce6"><path d="M 0.441406 0 L 95 0 L 95 75 L 0.441406 75 Z M 0.441406 0 " clip-rule="nonzero"/></clipPath><clipPath id="5b37182652"><path d="M 81.203125 47.117188 L 108.402344 47.117188 L 108.402344 74.789062 L 81.203125 74.789062 Z M 81.203125 47.117188 " clip-rule="nonzero"/></clipPath><clipPath id="5b561f9861"><path d="M 35.734375 61.304688 L 82.703125 61.304688 L 82.703125 100.660156 L 35.734375 100.660156 Z M 35.734375 61.304688 " clip-rule="nonzero"/></clipPath><clipPath id="8e491d3d6e"><path d="M 47 72 L 103 72 L 103 105.5 L 47 105.5 Z M 47 72 " clip-rule="nonzero"/></clipPath><clipPath id="90c7758ba6"><path d="M 346 23 L 374.558594 23 L 374.558594 81 L 346 81 Z M 346 23 " clip-rule="nonzero"/></clipPath></defs><g clip-path="url(#5cf6ccdce6)"><path stroke-linecap="butt" transform="matrix(0.522291, -0.301545, 0.30146, 0.522144, 0.441641, 37.726665)" fill="none" stroke-linejoin="miter" d="M 0.00159794 4.998149 L 110.982445 4.999837 " stroke="#080853" stroke-width="10" stroke-opacity="1" stroke-miterlimit="4"/></g><path stroke-linecap="butt" transform="matrix(-0.523766, -0.302397, 0.30146, -0.522144, 113.442104, 42.849816)" fill="none" stroke-linejoin="miter" d="M 0.000938696 5.001013 L 110.669252 4.999327 " stroke="#080853" stroke-width="10" stroke-opacity="1" stroke-miterlimit="4"/><path stroke-linecap="butt" transform="matrix(0, -0.60481, 0.60292, 0, 10.977633, 32.00737)" fill="none" stroke-linejoin="miter" d="M -0.000732134 8.997392 L 19.943535 8.997392 " stroke="#080853" stroke-width="18" stroke-opacity="1" stroke-miterlimit="4"/><path fill="#080853" d="M 42.898438 27.917969 C 60.742188 25.414062 62.183594 57.414062 45.675781 56.640625 C 32.402344 56.019531 27.390625 30.097656 42.898438 27.917969 " fill-opacity="1" fill-rule="evenodd"/><path fill="#080853" d="M 71.578125 27.917969 C 91.230469 23.625 88.9375 58.585938 70.65625 56.640625 C 56.183594 55.101562 59.003906 30.667969 71.578125 27.917969 " fill-opacity="1" fill-rule="evenodd"/><path fill="#080853" d="M 36.425781 66.371094 C 29.4375 81.648438 8.140625 70.855469 10.519531 55.714844 C 13.027344 39.765625 41.507812 47.898438 36.425781 66.371094 " fill-opacity="1" fill-rule="evenodd"/><g clip-path="url(#5b37182652)"><path fill="#080853" d="M 94.246094 47.375 C 98.84375 46.484375 104.589844 48.121094 106.734375 52.007812 C 112.652344 62.734375 101.746094 75.839844 91.007812 74.707031 C 85.109375 74.085938 81.703125 69.058594 81.292969 64.515625 C 80.414062 54.785156 87.351562 48.714844 94.246094 47.375 " fill-opacity="1" fill-rule="evenodd"/></g><g clip-path="url(#5b561f9861)"><path fill="#080853" d="M 54.464844 61.738281 C 70.671875 58.9375 85.550781 70.632812 82.21875 90.457031 C 81.527344 94.5625 78 100.363281 72.964844 100.648438 C 68.902344 100.882812 64.148438 96.921875 59.089844 96.945312 C 52.808594 96.976562 47.855469 102.554688 41.972656 99.726562 C 37.035156 97.347656 35.039062 87.730469 35.960938 80.730469 C 37.289062 70.644531 44.699219 63.421875 54.464844 61.738281 " fill-opacity="1" fill-rule="evenodd"/></g><g clip-path="url(#8e491d3d6e)"><path fill="#f5f0ec" d="M 81.375 116.070312 C 81.375 116.070312 88.476562 94.230469 70.683594 89.609375 C 70.683594 89.609375 68.140625 87.953125 67.988281 87.367188 C 67.835938 86.78125 66.101562 84.839844 64.933594 84.328125 C 64.933594 84.328125 63.921875 81.21875 63.265625 80.785156 C 63.265625 80.785156 64.652344 73.269531 62.972656 72.464844 C 61.304688 71.683594 58.902344 76.304688 58.902344 76.304688 C 58.902344 76.304688 54.757812 76.738281 54.246094 76.523438 C 53.734375 76.304688 49.585938 72.183594 48.792969 72.835938 C 47.996094 73.484375 48.058594 74.863281 49.152344 80.640625 C 49.152344 80.640625 45.222656 85.054688 51.691406 91.410156 C 51.691406 91.410156 52.054688 92.136719 52.421875 93.4375 C 52.785156 94.738281 51.84375 95.574219 53.21875 98.554688 C 54.605469 101.539062 57.363281 106.015625 56.929688 106.882812 C 56.929688 106.882812 57.222656 116.859375 56.199219 117.292969 C 55.171875 117.730469 53.253906 119.605469 55.542969 120.6875 C 55.542969 120.6875 55.554688 121.992188 56.339844 122.347656 C 58.050781 123.140625 59.832031 123 60.625 122.347656 C 61.421875 121.699219 61.9375 121.554688 62.667969 119.886719 L 64.410156 120.179688 C 64.292969 120.449219 64.007812 121.210938 64.324219 121.957031 C 64.324219 121.957031 64.585938 122.566406 65.359375 123 C 66.59375 123.691406 70.53125 123.269531 75.539062 121.914062 C 75.539062 121.914062 77.863281 123.507812 81.648438 121.480469 C 85.433594 119.453125 94.59375 119.386719 96.996094 121.914062 C 99.394531 124.441406 89.882812 125.90625 89.882812 125.90625 C 89.882812 125.90625 86.609375 128.429688 90.898438 128.867188 C 95.183594 129.300781 105.808594 124.960938 101.511719 120.625 C 97.210938 116.285156 88.640625 114.550781 81.375 116.070312 Z M 81.375 116.070312 " fill-opacity="1" fill-rule="nonzero"/></g><g fill="#080853" fill-opacity="1"><g transform="translate(122.103964, 80.474887)"><g><path d="M 27.5 -26.125 L 19.6875 -16.671875 L 19.6875 0 L 6.625 0 L 6.625 -60 L 19.6875 -60 L 19.6875 -31.453125 L 20.203125 -31.453125 L 28.703125 -43.0625 L 42.203125 -60 L 56.984375 -60 L 36.78125 -35.328125 L 58.796875 0 L 43.40625 0 Z M 27.5 -26.125 "/></g></g></g><g fill="#080853" fill-opacity="1"><g transform="translate(181.919989, 80.474887)"><g><path d="M 12.296875 -49.9375 C 9.710938 -49.9375 7.832031 -50.523438 6.65625 -51.703125 C 5.488281 -52.878906 4.90625 -54.382812 4.90625 -56.21875 L 4.90625 -58.109375 C 4.90625 -59.941406 5.488281 -61.441406 6.65625 -62.609375 C 7.832031 -63.785156 9.710938 -64.375 12.296875 -64.375 C 14.867188 -64.375 16.742188 -63.785156 17.921875 -62.609375 C 19.097656 -61.441406 19.6875 -59.941406 19.6875 -58.109375 L 19.6875 -56.21875 C 19.6875 -54.382812 19.097656 -52.878906 17.921875 -51.703125 C 16.742188 -50.523438 14.867188 -49.9375 12.296875 -49.9375 Z M 5.9375 -45.125 L 18.65625 -45.125 L 18.65625 0 L 5.9375 0 Z M 5.9375 -45.125 "/></g></g></g><g fill="#080853" fill-opacity="1"><g transform="translate(206.499564, 80.474887)"><g><path d="M 21.75 0 C 17.332031 0 13.992188 -1.113281 11.734375 -3.34375 C 9.472656 -5.582031 8.34375 -8.851562 8.34375 -13.15625 L 8.34375 -35.234375 L 1.984375 -35.234375 L 1.984375 -45.125 L 5.15625 -45.125 C 6.875 -45.125 8.046875 -45.539062 8.671875 -46.375 C 9.304688 -47.207031 9.625 -48.394531 9.625 -49.9375 L 9.625 -57.328125 L 21.0625 -57.328125 L 21.0625 -45.125 L 30 -45.125 L 30 -35.234375 L 21.0625 -35.234375 L 21.0625 -9.890625 L 29.3125 -9.890625 L 29.3125 0 Z M 21.75 0 "/></g></g></g><g fill="#080853" fill-opacity="1"><g transform="translate(239.415568, 80.474887)"><g><path d="M 30.859375 1.03125 C 26.785156 1.03125 23.113281 0.382812 19.84375 -0.90625 C 16.582031 -2.195312 13.804688 -4.113281 11.515625 -6.65625 C 9.222656 -9.207031 7.445312 -12.390625 6.1875 -16.203125 C 4.925781 -20.015625 4.296875 -24.46875 4.296875 -29.5625 C 4.296875 -34.601562 4.925781 -39.085938 6.1875 -43.015625 C 7.445312 -46.941406 9.222656 -50.238281 11.515625 -52.90625 C 13.804688 -55.570312 16.582031 -57.59375 19.84375 -58.96875 C 23.113281 -60.34375 26.785156 -61.03125 30.859375 -61.03125 C 36.410156 -61.03125 40.992188 -59.894531 44.609375 -57.625 C 48.222656 -55.363281 51.117188 -51.800781 53.296875 -46.9375 L 42.03125 -41.078125 C 41.226562 -43.609375 39.976562 -45.628906 38.28125 -47.140625 C 36.59375 -48.660156 34.117188 -49.421875 30.859375 -49.421875 C 27.015625 -49.421875 23.929688 -48.171875 21.609375 -45.671875 C 19.296875 -43.179688 18.140625 -39.5625 18.140625 -34.8125 L 18.140625 -25.1875 C 18.140625 -20.425781 19.296875 -16.800781 21.609375 -14.3125 C 23.929688 -11.820312 27.015625 -10.578125 30.859375 -10.578125 C 34.066406 -10.578125 36.628906 -11.445312 38.546875 -13.1875 C 40.460938 -14.9375 41.882812 -17.046875 42.8125 -19.515625 L 53.46875 -13.328125 C 51.226562 -8.742188 48.285156 -5.203125 44.640625 -2.703125 C 41.003906 -0.210938 36.410156 1.03125 30.859375 1.03125 Z M 30.859375 1.03125 "/></g></g></g><g fill="#080853" fill-opacity="1"><g transform="translate(295.364188, 80.474887)"><g><path d="M 39.28125 0 C 36.988281 0 35.082031 -0.710938 33.5625 -2.140625 C 32.039062 -3.578125 31.082031 -5.5 30.6875 -7.90625 L 30.171875 -7.90625 C 29.484375 -4.988281 27.960938 -2.769531 25.609375 -1.25 C 23.265625 0.269531 20.375 1.03125 16.9375 1.03125 C 12.40625 1.03125 8.9375 -0.171875 6.53125 -2.578125 C 4.125 -4.984375 2.921875 -8.164062 2.921875 -12.125 C 2.921875 -16.875 4.65625 -20.410156 8.125 -22.734375 C 11.59375 -25.054688 16.304688 -26.21875 22.265625 -26.21875 L 29.390625 -26.21875 L 29.390625 -29.046875 C 29.390625 -31.222656 28.816406 -32.957031 27.671875 -34.25 C 26.523438 -35.539062 24.609375 -36.1875 21.921875 -36.1875 C 19.398438 -36.1875 17.394531 -35.640625 15.90625 -34.546875 C 14.414062 -33.460938 13.179688 -32.234375 12.203125 -30.859375 L 4.640625 -37.5625 C 6.472656 -40.25 8.78125 -42.351562 11.5625 -43.875 C 14.34375 -45.394531 18.109375 -46.15625 22.859375 -46.15625 C 29.273438 -46.15625 34.085938 -44.75 37.296875 -41.9375 C 40.503906 -39.132812 42.109375 -35.039062 42.109375 -29.65625 L 42.109375 -9.890625 L 46.328125 -9.890625 L 46.328125 0 Z M 21.65625 -7.828125 C 23.78125 -7.828125 25.597656 -8.285156 27.109375 -9.203125 C 28.628906 -10.117188 29.390625 -11.609375 29.390625 -13.671875 L 29.390625 -19 L 23.203125 -19 C 18.222656 -19 15.734375 -17.304688 15.734375 -13.921875 L 15.734375 -12.640625 C 15.734375 -10.972656 16.25 -9.753906 17.28125 -8.984375 C 18.3125 -8.210938 19.769531 -7.828125 21.65625 -7.828125 Z M 21.65625 -7.828125 "/></g></g></g><g clip-path="url(#90c7758ba6)"><g fill="#080853" fill-opacity="1"><g transform="translate(344.265508, 80.474887)"><g><path d="M 21.75 0 C 17.332031 0 13.992188 -1.113281 11.734375 -3.34375 C 9.472656 -5.582031 8.34375 -8.851562 8.34375 -13.15625 L 8.34375 -35.234375 L 1.984375 -35.234375 L 1.984375 -45.125 L 5.15625 -45.125 C 6.875 -45.125 8.046875 -45.539062 8.671875 -46.375 C 9.304688 -47.207031 9.625 -48.394531 9.625 -49.9375 L 9.625 -57.328125 L 21.0625 -57.328125 L 21.0625 -45.125 L 30 -45.125 L 30 -35.234375 L 21.0625 -35.234375 L 21.0625 -9.890625 L 29.3125 -9.890625 L 29.3125 0 Z M 21.75 0 "/></g></g></g></g></svg>